<svg preserveAspectRatio="none" width="100%" height="100%" overflow="visible" style="display: block;" viewBox="0 0 12 12" fill="none" xmlns="http://www.w3.org/2000/svg">
<path id="Shape" d="M0 6C0 4.13623 0 3.20435 0.304482 2.46927C0.710458 1.48915 1.48915 0.710458 2.46927 0.304482C3.20435 0 4.13623 0 6 0C7.86377 0 8.79565 0 9.53073 0.304482C10.5108 0.710458 11.2895 1.48915 11.6955 2.46927C12 3.20435 12 4.13623 12 6C12 7.86377 12 8.79565 11.6955 9.53073C11.2895 10.5108 10.5108 11.2895 9.53073 11.6955C8.79565 12 7.86377 12 6 12C4.13623 12 3.20435 12 2.46927 11.6955C1.48915 11.2895 0.710458 10.5108 0.304482 9.53073C0 8.79565 0 7.86377 0 6Z" fill="currentColor"/>
</svg>
