<svg width="61" height="95" viewBox="0 0 61 95" fill="none" xmlns="http://www.w3.org/2000/svg" aria-hidden="true">
  <path d="M25.1729 0C33.1419 0 39.9015 5.17668 42.2734 12.3506H54.4941L36.876 29.9219C37.5828 30.7017 38.2301 31.5697 38.8027 32.5264C39.6403 33.926 40.694 36.9381 42.8008 42.9609L61 94.9883L47.5068 91.1494L47.5039 91.1484C47.1246 91.0405 46.9337 90.9864 46.7432 90.9365C45.3113 90.5615 43.8402 90.3562 42.3604 90.3252C42.1628 90.3211 41.9642 90.3213 41.5674 90.3213C35.876 90.3213 33.0298 90.3214 30.8545 90.0127C22.8935 88.8826 16.0741 84.8342 11.3135 79.1094V90.3213H0V79.0068H11.2275C5.78641 72.4065 3.07116 63.6021 4.47754 54.4717C4.81205 52.3001 5.65518 49.5131 7.3418 43.9395C9.23514 37.6827 10.1818 34.5541 10.959 33.1201C11.4144 32.2798 11.9263 31.5018 12.4873 30.7871C9.20108 27.5248 7.16517 23.0042 7.16504 18.0078C7.16504 8.06252 15.2276 0 25.1729 0ZM29.0352 38.2383C27.1447 35.2384 22.7268 35.3318 20.9639 38.4072C20.9497 38.4538 20.7499 38.9293 20.3213 40.2393C19.7998 41.833 19.1329 44.0336 18.1699 47.2158C16.3546 53.2149 15.8397 55.0227 15.6592 56.1943C13.9808 67.0918 21.5278 77.2608 32.4443 78.8105C33.6201 78.9774 35.4427 79.0078 41.5674 79.0078H41.6387C41.9648 79.0078 42.278 79.007 42.5977 79.0137C42.8774 79.0195 43.1572 79.0293 43.4365 79.043L32.1221 46.6963C31.0497 43.6306 30.3092 41.5184 29.7344 39.9883C29.2654 38.7399 29.0523 38.2852 29.0352 38.2383ZM25.1729 11.3135C21.476 11.3136 18.4795 14.3109 18.4795 18.0078C18.4798 21.7045 21.4762 24.701 25.1729 24.7012C28.8696 24.7011 31.8669 21.7045 31.8672 18.0078C31.8672 14.3109 28.8697 11.3136 25.1729 11.3135Z" fill="currentColor"/>
</svg>
