<svg width="24" height="24" viewBox="0 0 24 24" fill="none" xmlns="http://www.w3.org/2000/svg" aria-hidden="true">
  <path d="M12.8998 6.44641C13.7818 6.58822 14.5949 6.93586 15.2893 7.43738L17.7283 4.99951L19.0005 6.27283L16.5615 8.70959C17.0635 9.40426 17.4106 10.2177 17.5525 11.1002H21V12.8998H17.5525C17.4106 13.782 17.0632 14.5948 16.5615 15.2893L19.0005 17.7283L17.7283 19.0005L15.2893 16.5615C14.5948 17.0632 13.782 17.4106 12.8998 17.5525V21H11.1002V17.5525C10.2177 17.4106 9.40426 17.0635 8.70959 16.5615L6.27173 19.0005L4.99951 17.7272L7.43738 15.2893C6.9359 14.5949 6.58933 13.7818 6.44751 12.8998H3V11.1002H6.44751C6.58938 10.2179 6.93561 9.40415 7.43738 8.70959L4.99951 6.27173L6.27173 4.99951L8.70959 7.43738C9.40419 6.93558 10.2179 6.58826 11.1002 6.44641V3H12.8998V6.44641ZM12 8.17456C9.88751 8.17456 8.17456 9.88751 8.17456 12C8.17456 14.1125 9.88751 15.8254 12 15.8254C14.1125 15.8254 15.8254 14.1125 15.8254 12C15.8254 9.88751 14.1125 8.17456 12 8.17456Z" fill="currentColor"/>
</svg>
