<svg width="14" height="14" viewBox="0 0 14 14" xmlns="http://www.w3.org/2000/svg">
<path fill-rule="evenodd" fill="#191918" d="M12.4443 0C13.3034 0 14 0.696554 14 1.55566V12.4443C14 13.3034 13.3034 14 12.4443 14H1.55566C0.696554 14 0 13.3034 0 12.4443V1.55566C0 0.696554 0.696554 0 1.55566 0H12.4443ZM5.68652 2C4.75556 2 4 2.75556 4 3.68652C4.00005 4.61744 4.75559 5.37305 5.68652 5.37305C4.75577 5.37305 4.00033 5.97713 4 6.72168C4 7.46645 4.75556 8.07129 5.68652 8.07129C4.7556 8.07129 4.00005 8.8269 4 9.75781C4 10.6888 4.75556 11.4443 5.68652 11.4443C6.61748 11.4443 7.37305 10.6888 7.37305 9.75781V5.37305H8.72266C9.46722 5.37278 10.0712 4.61728 10.0713 3.68652C10.0713 2.75573 9.46724 2.00027 8.72266 2H5.68652ZM8.72266 5.37305C7.97805 5.37305 7.37331 5.97713 7.37305 6.72168C7.37305 7.46645 7.97789 8.07129 8.72266 8.07129C9.46724 8.07107 10.0713 7.46632 10.0713 6.72168C10.071 5.97727 9.46708 5.37326 8.72266 5.37305Z"/>
</svg>
